# xmcd
#
# Track frame offsets:
#	150
#	8730
#	20416
#	31555
#	42456
#	52654
#	65395
#	77184
#	87845
#	97876
#	107822
#	116610
#	127537
#	140135
#	149958
#	159930
#	170916
#	182088
#	194664
#	204839
#	218079
#	231697
#	243384
#	255344
#
# Disc length: 3578 seconds
#
# Revision: 0
# Processed by: cddbd v1.5.2PL0 Copyright (c) Steve Scherf et al.
# Submitted via: audiograbber 1.81.03
#
DISCID=490df818
DTITLE=Chris Kenner - Collection-Land Of A Thousand Dances
DYEAR=2003
DGENRE=
TTITLE0=I Like It Like That - Part 1
TTITLE1=Packin' Up
TTITLE2=A Very True Story
TTITLE3=Come Back And See
TTITLE4=(I Found) Peace
TTITLE5=Something You Got
TTITLE6=Come See About Me
TTITLE7=Gonna Getcha Baby
TTITLE8=How Far
TTITLE9=Go Thru Life
TTITLE10=What's Wrong With Life
TTITLE11=Never Reach Perfection
TTITLE12=Time
TTITLE13=She Can Dance
TTITLE14=Anybody Here Seen My Baby
TTITLE15=Johnny Little
TTITLE16=Let Me Show You How (To Twist)
TTITLE17=Land Of A Thousand Dances
TTITLE18=That's My Girl
TTITLE19=They Took My Money
TTITLE20=The Life Of My Baby
TTITLE21=Get On This Train
TTITLE22=I'm Lonely, Take Me
TTITLE23=Shoo Rah
EXTD=
EXTT0=
EXTT1=
EXTT2=
EXTT3=
EXTT4=
EXTT5=
EXTT6=
EXTT7=
EXTT8=
EXTT9=
EXTT10=
EXTT11=
EXTT12=
EXTT13=
EXTT14=
EXTT15=
EXTT16=
EXTT17=
EXTT18=
EXTT19=
EXTT20=
EXTT21=
EXTT22=
EXTT23=
PLAYORDER=
